PathFileType	4	(X/Y/Z)	4_coords_data.trc
DataRate	CameraRate	NumFrames	NumMarkers	Units	OrigDataRate	OrigDataStartFrame	OrigNumFrames
30.0	30.0	6	21	m	30.0	48	57
Frame#	Time	THUMB_TIP	THUMB_IP	THUMB_MCP	THUMB_CMC	INDEX_TIP	INDEX_DIP	INDEX_PIP	INDEX_MCP	MIDDLE_TIP	MIDDLE_DIP	MIDDLE_PIP	MIDDLE_MCP	RING_TIP	RING_DIP	RING_PIP	RING_MCP	PINKY_TIP	PINKY_DIP	PINKY_PIP	PINKY_MCP	WRIST
X1	Y1	Z1	X2	Y2	Z2	X3	Y3	Z3	X4	Y4	Z4	X5	Y5	Z5	X6	Y6	Z6	X7	Y7	Z7	X8	Y8	Z8	X9	Y9	Z9	X10	Y10	Z10	X11	Y11	Z11	X12	Y12	Z12	X13	Y13	Z13	X14	Y14	Z14	X15	Y15	Z15	X16	Y16	Z16	X17	Y17	Z17	X18	Y18	Z18	X19	Y19	Z19	X20	Y20	Z20	X21	Y21	Z21
47	1.5666666666666667	0.003790760040283203	-0.061579898834228514	1.0423900146484375	-0.01746190071105957	-0.05339590072631836	1.0623199462890625	-0.03893980026245117	-0.055902099609375	1.0888199462890624	-0.05959939956665039	-0.028800199508666992	1.1024200439453125	-0.013307700157165528	-0.05635409927368164	0.980843994140625	-0.03335200119018555	-0.05953409957885742	0.9923690185546875	-0.05363759994506836	-0.06164260101318359	1.0085499877929687	-0.07551370239257812	-0.05850519943237305	1.0456500244140625	-0.0068454198837280275	-0.025426300048828124	0.9692589721679687	-0.027886600494384767	-0.02836750030517578	0.9835020141601563	-0.05351369857788086	-0.03168149948120117	1.00177001953125	-0.08233159637451172	-0.03393000030517578	1.03802001953125	-0.008361680030822754	0.004587649822235107	0.9803699951171875	-0.03150670051574707	0.003137300014495849	0.9874000244140625	-0.05819060134887695	-0.0005442010164260861	0.9997960205078125	-0.07903569793701172	-0.009043399810791015	1.0379100341796874	-0.01698069953918457	0.028106700897216796	1.005530029296875	-0.03639619827270508	0.028539199829101563	1.0108400268554687	-0.056220699310302734	0.026018199920654298	1.0188200073242188	-0.0741510009765625	0.014177599906921386	1.043449951171875	-0.09622969818115235	-0.010239700317382812	1.12318994140625
48	1.6	0.00314584994316101	-0.060844100952148435	1.0431500244140626	-0.01803459930419922	-0.052923099517822265	1.0631600341796874	-0.039536300659179686	-0.055566398620605466	1.0898699951171875	-0.06008459854125976	-0.028472200393676757	1.1029599609375	-0.013808600425720215	-0.056604499816894534	0.9808889770507813	-0.033706199645996096	-0.05954180145263672	0.9928629760742187	-0.0538218994140625	-0.06139709854125976	1.0093900146484376	-0.07601409912109375	-0.057951400756835934	1.0464200439453124	-0.007369259834289551	-0.024833200454711914	0.969530029296875	-0.028333499908447267	-0.02782780075073242	0.9839769897460937	-0.05376330184936524	-0.03109269905090332	1.0024299926757811	-0.08267240142822266	-0.03341559982299805	1.0383900146484375	-0.009181159973144531	0.005650179862976074	0.979989990234375	-0.03228070068359375	0.004084799766540527	0.9875670166015625	-0.058667098999023434	0.000305269002914428	1.0004500122070312	-0.079122802734375	-0.008425760269165038	1.0382900390625	-0.01826020050048828	0.030233999252319337	1.00525	-0.03748300170898437	0.03033289909362793	1.0110999755859376	-0.057071498870849606	0.02737649917602539	1.019530029296875	-0.07418409729003907	0.014798800468444824	1.0441600341796875	-0.09669920349121094	-0.00964859962463379	1.12397998046875
49	1.6333333333333333	0.002408469915390014	-0.06069860076904297	1.0436500244140625	-0.018760400772094725	-0.05289500045776367	1.063969970703125	-0.04021490097045898	-0.05556880187988281	1.0905	-0.06048979949951172	-0.028150299072265624	1.1033800048828124	-0.01429069995880127	-0.05868069839477539	0.9812360229492187	-0.0339651985168457	-0.06109640121459961	0.993572021484375	-0.05397150039672852	-0.062331298828125	1.0103300170898437	-0.07639800262451171	-0.05764899826049805	1.0470400390625	-0.008696660041809082	-0.024871599197387694	0.968739013671875	-0.029417400360107423	-0.027768299102783202	0.9837449951171875	-0.054344501495361325	-0.030912399291992188	1.003	-0.08278089904785156	-0.03302479934692383	1.0394200439453125	-0.009601590156555175	0.006964749813079834	0.9790419921875	-0.03240539932250976	0.005161439895629883	0.98772900390625	-0.058438201904296876	0.001180969953536987	1.0014000244140624	-0.0792051010131836	-0.00788311004638672	1.0391600341796876	-0.01878190040588379	0.03314020156860351	1.005739990234375	-0.03784550094604492	0.03259280014038086	1.0121500244140624	-0.05711959838867187	0.029080999374389647	1.02077001953125	-0.07371980285644532	0.015385899543762207	1.04475	-0.09707980346679687	-0.009022029876708984	1.1243699951171875
50	1.6666666666666667	0.001887179970741272	-0.060134201049804686	1.0439200439453125	-0.019122900009155272	-0.052421001434326174	1.0640999755859375	-0.04076089859008789	-0.05529999923706055	1.0908900146484375	-0.060966098785400394	-0.027942100524902345	1.104050048828125	-0.013954999923706055	-0.058512199401855466	0.9818809814453126	-0.033661399841308594	-0.06085660171508789	0.9942449951171874	-0.05375460052490234	-0.06199369812011719	1.0109000244140625	-0.07673210144042969	-0.05726789855957031	1.0474000244140624	-0.00881229019165039	-0.024369400024414064	0.9690380249023437	-0.029458700180053712	-0.02729549980163574	0.9841170043945312	-0.05430649948120117	-0.0304276008605957	1.0033699951171875	-0.08316419982910156	-0.0325792007446289	1.0394599609375	-0.00879837989807129	0.007777379989624023	0.9795059814453125	-0.03159079933166504	0.005867380142211914	0.9885859985351563	-0.05763309860229492	0.001841429948806762	1.0023699951171876	-0.07919550323486328	-0.007410699844360351	1.03972998046875	-0.018207500457763672	0.034469600677490234	1.0067899780273437	-0.03729159927368164	0.033679000854492186	1.0133200073242188	-0.05657740020751953	0.02995089912414551	1.0219099731445314	-0.07336630249023438	0.01585540008544922	1.045510009765625	-0.09749939727783204	-0.008829039573669433	1.12447998046875
51	1.7	0.001482959985733032	-0.059287899017333986	1.0438900146484376	-0.019545900344848634	-0.051813499450683594	1.06422998046875	-0.04092919921875	-0.054797798156738284	1.0909100341796876	-0.06163890075683594	-0.027637800216674804	1.1046300048828126	-0.013666600227355956	-0.05733300018310547	0.9822150268554688	-0.03344329833984375	-0.05978689956665039	0.99439599609375	-0.05364830017089844	-0.061094100952148435	1.0110700073242187	-0.07690470123291016	-0.056779399871826175	1.047530029296875	-0.008902279853820801	-0.023442800521850587	0.969030029296875	-0.02944569969177246	-0.026436100006103514	0.9842579956054688	-0.054373001098632814	-0.02964940071105957	1.003530029296875	-0.08328189849853515	-0.03204809951782227	1.039719970703125	-0.008061779975891113	0.008947409629821778	0.980051025390625	-0.030819099426269533	0.006905129909515381	0.9892999877929688	-0.05694089889526367	0.002739490032196045	1.0030700073242187	-0.07915299987792969	-0.006901679992675781	1.039699951171875	-0.017564300537109376	0.035294498443603516	1.0076900024414062	-0.03666230010986328	0.034333301544189454	1.0141300048828126	-0.05599530029296875	0.03049970054626465	1.0226500244140626	-0.07322869873046875	0.01628179931640625	1.0459100341796874	-0.09803179931640625	-0.00850489044189453	1.1246500244140625
52	1.7333333333333334	0.0009928719997406	-0.05901679992675781	1.0440799560546874	-0.019992900848388673	-0.051431198120117184	1.0645699462890625	-0.04154909896850586	-0.054580001831054686	1.09125	-0.061900001525878906	-0.027435199737548828	1.1046600341796875	-0.014819100379943847	-0.05744810104370117	0.9815250244140625	-0.03439440155029297	-0.059765800476074216	0.99422802734375	-0.05424209976196289	-0.06095660018920898	1.0111300048828125	-0.07734770202636719	-0.05665769958496094	1.04756005859375	-0.009799440383911133	-0.023403499603271486	0.9684910278320312	-0.030187599182128905	-0.02634779930114746	0.98406201171875	-0.05479899978637695	-0.029558300018310547	1.0035700073242189	-0.08358910369873047	-0.03191900062561035	1.03977001953125	-0.0077574501037597655	0.00961515998840332	0.9805050048828124	-0.030537200927734376	0.0074988298416137685	0.9898179931640625	-0.056761001586914064	0.003308609962463379	1.0035399780273437	-0.07944259643554688	-0.006647150039672852	1.039739990234375	-0.016997400283813476	0.03614649963378906	1.00872998046875	-0.03620240020751953	0.035095500946044925	1.0151300048828125	-0.05562939834594727	0.031107400894165037	1.0233800048828126	-0.07342320251464844	0.016513599395751952	1.04597998046875	-0.09834269714355469	-0.008244099617004395	1.1244300537109375
